<svg width="524.235" height="524.235" xmlns="http://www.w3.org/2000/svg">

 <g>
  <title>background</title>
  <rect fill="none" id="canvas_background" height="402" width="582" y="-1" x="-1"/>
 </g>
 <g>
  <title>Layer 1</title>
  <path fill="#ffffff" id="svg_1" d="m507.613,102.549c-10.271,-5.823 -22.862,-5.663 -33.005,0.416l-82.424,49.451c-5.407,-30.717 -32.285,-54.123 -64.538,-54.123l-136.69,0l320.49,320.49c7.877,-6.147 12.789,-15.434 12.789,-25.607l0,-262.118c0,-11.807 -6.351,-22.701 -16.622,-28.509z"/>
  <path fill="#ffffff" id="svg_2" d="m0,46.331l53.209,53.209c-30.255,5.789 -53.209,32.362 -53.209,64.283l0,196.588c0,36.14 29.389,65.529 65.529,65.529l262.118,0c14.619,0 27.797,-5.159 38.652,-13.311l111.605,111.605l46.331,-46.331l-477.902,-477.902l-46.332,46.331l-0.001,-0.001z"/>
 </g>
</svg>